# xmcd
#
# Track frame offsets:
#	150
#	15157
#	31407
#	45674
#	61051
#	75587
#	92469
#	110085
#	126107
#	142181
#	160826
#	181171
#	198915
#	217897
#	234532
#
# Disc length: 3439 seconds
#
# Revision: 1
# Processed by: cddbd v1.5.2PL0 Copyright (c) Steve Scherf et al.
# Submitted via: audiograbber 1.83.01
#
DISCID=ba0d6d0f
DTITLE=The Bellamy Brothers - CB90110 Chartbuster (CB)
DYEAR=1900
DGENRE=Country
TTITLE0=Let Your Love Flow
TTITLE1=If I Said You Had A Beautiful Body
TTITLE2=Do You Love As Good As You Look
TTITLE3=Do You Love As Good As You Look
TTITLE4=Redneck Girl
TTITLE5=Rip Off The Knob
TTITLE6=Sugar Daddy
TTITLE7=Dancin' Cowboys
TTITLE8=Lovers Live Longer
TTITLE9=For All The Wrong Reasons
TTITLE10=When I'm Away From You
TTITLE11=I Need More Of You
TTITLE12=Old Hippie
TTITLE13=Lie To You For Your Love
TTITLE14=Kids Of The Baby Boom
EXTD=
EXTT0=
EXTT1=
EXTT2=
EXTT3=
EXTT4=
EXTT5=
EXTT6=
EXTT7=
EXTT8=
EXTT9=
EXTT10=
EXTT11=
EXTT12=
EXTT13=
EXTT14=
PLAYORDER=
